<?xml version="1.0" encoding="UTF-8" standalone="no"?>
<!DOCTYPE svg PUBLIC "-//W3C//DTD SVG 1.1//EN" "http://www.w3.org/Graphics/SVG/1.1/DTD/svg11.dtd">
<svg width="100%" height="100%" viewBox="0 0 62 62" version="1.1" xmlns="http://www.w3.org/2000/svg" xmlns:xlink="http://www.w3.org/1999/xlink" xml:space="preserve" xmlns:serif="http://www.serif.com/" style="fill-rule:evenodd;clip-rule:evenodd;stroke-linecap:round;stroke-linejoin:round;stroke-miterlimit:1.5;">
    <g transform="matrix(1,0,0,1,-2089,-181)">
        <g transform="matrix(1.5,0,0,2.25,1670,146)">
            <g id="Add_Button" transform="matrix(0.826271,0,0,0.642655,52.1186,7.29944)">
                <g transform="matrix(0.56291,0,0,0.482494,46.6905,5.33606)">
                    <circle cx="450" cy="60" r="43" style="fill:rgb(24,24,24);stroke:rgb(203,166,99);stroke-width:1.79px;"/>
                </g>
                <g transform="matrix(0.294628,-0.252538,0.294628,0.252538,149.74,132.776)">
                    <path d="M466.6,36.6L473.4,43.4L456.8,60L473.4,76.6L466.6,83.4L450,66.8L433.4,83.4L426.6,76.6L443.2,60L426.6,43.4L433.4,36.6L450,53.2L466.6,36.6Z" style="fill:rgb(203,166,99);"/>
                </g>
            </g>
        </g>
    </g>
</svg>
