<?xml version="1.0" encoding="UTF-8" standalone="no"?>
<!DOCTYPE svg PUBLIC "-//W3C//DTD SVG 1.1//EN" "http://www.w3.org/Graphics/SVG/1.1/DTD/svg11.dtd">
<svg width="100%" height="100%" viewBox="0 0 512 512" version="1.1" xmlns="http://www.w3.org/2000/svg" xmlns:xlink="http://www.w3.org/1999/xlink" xml:space="preserve" xmlns:serif="http://www.serif.com/" style="fill-rule:evenodd;clip-rule:evenodd;stroke-linejoin:round;stroke-miterlimit:2;">
    <g id="Exit_Normal" transform="matrix(3.77953,0,0,3.77953,-124.904,-323.759)">
        <path id="path1" d="M94.609,220.886C80.86,219.468 68.25,214.267 57.89,205.74C44.934,195.075 36.317,179.89 33.87,163.41C31.187,145.345 35.801,127.344 46.938,112.43C49.362,109.184 56.578,101.967 59.825,99.543C78.317,85.734 101.763,82.035 123.277,89.533C137.412,94.459 150.163,104.686 158.288,117.612C163.13,125.316 166.597,134.913 167.93,144.304C168.606,149.059 168.606,157.805 167.93,162.56C166.285,174.149 161.821,184.918 154.726,194.419C152.288,197.684 145.079,204.893 141.814,207.331C132.496,214.29 122.02,218.704 110.805,220.397C106.755,221.009 98.279,221.265 94.609,220.886ZM107.97,189.716C119.688,187.023 128.938,178.912 132.913,167.846C134.258,164.101 134.768,161.041 134.788,156.607C134.829,147.263 131.729,139.487 125.308,132.832C122.041,129.447 120.36,128.694 117.609,129.387C115.732,129.86 113.731,131.898 113.274,133.802C112.644,136.428 113.222,137.806 116.295,141.007C119.865,144.726 121.865,148.796 122.531,153.696C123.446,160.424 120.646,168.066 115.606,172.597C104.845,182.272 87.808,179.16 81.352,166.34C79.393,162.452 78.568,157.772 79.122,153.696C79.787,148.802 81.744,144.815 85.346,141.014C87.752,138.475 88.236,137.715 88.514,136.045C88.985,133.207 86.83,130.059 83.939,129.366C81.203,128.709 79.63,129.427 76.345,132.832C69.973,139.437 66.848,147.219 66.852,156.474C66.857,165.736 70.248,173.948 76.741,180.419C82.293,185.953 88.597,189.032 96.99,190.309C98.863,190.594 105.773,190.221 107.97,189.716ZM104.033,151.105C105.614,150.279 107.01,148.649 107.429,147.141C107.6,146.527 107.701,141.571 107.698,133.985C107.694,122.317 107.672,121.765 107.156,120.623C106.495,119.162 105.272,117.851 103.869,117.101C102.377,116.302 99.277,116.302 97.784,117.101C96.382,117.851 95.158,119.162 94.497,120.623C93.981,121.765 93.959,122.317 93.955,133.985C93.952,141.571 94.053,146.527 94.224,147.141C94.643,148.649 96.04,150.279 97.62,151.105C98.763,151.702 99.379,151.844 100.827,151.844C102.274,151.844 102.89,151.702 104.033,151.105Z" style="fill:rgb(209,165,86);fill-rule:nonzero;"/>
    </g>
</svg>
