<?xml version="1.0" encoding="UTF-8" standalone="no"?>
<!DOCTYPE svg PUBLIC "-//W3C//DTD SVG 1.1//EN" "http://www.w3.org/Graphics/SVG/1.1/DTD/svg11.dtd">
<svg width="100%" height="100%" viewBox="0 0 900 901" version="1.1" xmlns="http://www.w3.org/2000/svg" xmlns:xlink="http://www.w3.org/1999/xlink" xml:space="preserve" xmlns:serif="http://www.serif.com/" style="fill-rule:evenodd;clip-rule:evenodd;stroke-linejoin:round;stroke-miterlimit:2;">
    <g transform="matrix(1,0,0,1,0,-146)">
        <g transform="matrix(1.5,0,0,2.25,0,146)">
            <g id="Frame" transform="matrix(4.16993,0,0,0.0193732,120.941,-6.78063)">
                <path d="M-29.003,20997.1C-29.003,21577.6 -29.003,350 -29.003,350L114.884,350L114.884,20997.1L-29.003,20997.1ZM111.687,2001.77C111.687,1758.39 111.013,1524.98 109.813,1352.89C108.614,1180.8 106.988,1084.12 105.292,1084.12C90.805,1084.12 56.733,1084.12 56.733,1084.12C55.15,1084.12 53.635,1176.79 52.538,1340.72C51.442,1504.66 50.859,1725.67 50.924,1952.71C50.932,1968.96 50.934,1985.32 50.934,2001.77C50.934,2634.84 47.352,3148.82 42.94,3148.82C38.529,3148.82 34.947,2634.84 34.947,2001.77C34.947,1985.32 34.949,1968.96 34.954,1952.69C35.019,1725.78 34.436,1504.9 33.34,1341.06C32.244,1177.22 30.73,1084.6 29.147,1084.6C16.895,1084.29 -5.14,1084.18 -19.411,1084.14C-21.107,1084.14 -22.733,1180.81 -23.933,1352.91C-25.132,1525 -25.806,1758.41 -25.806,2001.79C-25.806,4451.67 -25.806,15549 -25.806,19620.6C-25.806,19864 -25.132,20097.4 -23.933,20269.5C-22.733,20441.6 -21.107,20538.2 -19.411,20538.2C3.631,20538.2 82.25,20538.2 105.292,20538.2C106.988,20538.2 108.614,20441.6 109.813,20269.5C111.013,20097.4 111.687,19864 111.687,19620.6L111.687,2001.77Z" style="fill:rgb(24,24,24);"/>
            </g>
        </g>
    </g>
</svg>
