<?xml version="1.0" encoding="UTF-8" standalone="no"?>
<!DOCTYPE svg PUBLIC "-//W3C//DTD SVG 1.1//EN" "http://www.w3.org/Graphics/SVG/1.1/DTD/svg11.dtd">
<svg width="100%" height="100%" viewBox="0 0 254 98" version="1.1" xmlns="http://www.w3.org/2000/svg" xmlns:xlink="http://www.w3.org/1999/xlink" xml:space="preserve" xmlns:serif="http://www.serif.com/" style="fill-rule:evenodd;clip-rule:evenodd;stroke-linejoin:round;stroke-miterlimit:2;">
    <g id="Artboard1" transform="matrix(1.04968,0,0,1.03164,0,0)">
        <rect x="0" y="0" width="241.566" height="94.832" style="fill:none;"/>
        <g transform="matrix(0.553251,0,0,0.562926,-147.352,-175.475)">
            <g>
                <path d="M291.914,362.645C286.755,358.73 281.675,354.711 276.67,350.6C276.67,337.64 276.67,324.68 276.67,311.72C290.671,326.814 305.467,341.198 321.243,354.436C321.243,364.006 321.243,373.576 321.243,383.145C316.088,379.85 311.007,376.44 305.998,372.927C305.998,406.081 305.998,439.235 305.998,472.389C301.303,472.304 296.609,472.216 291.914,472.124C291.914,435.631 291.914,399.138 291.914,362.645Z" style="fill:rgb(209,165,86);"/>
                <path d="M327.704,359.746C332.337,363.475 337.055,367.1 341.859,370.605C341.859,404.727 341.859,438.848 341.859,472.969C337.141,472.902 332.422,472.831 327.704,472.756C327.704,435.086 327.704,397.416 327.704,359.746Z" style="fill:rgb(209,165,86);"/>
                <path d="M351.152,377.156C356.024,380.472 360.984,383.659 366.033,386.699C369.802,399.387 373.819,412.003 378.157,424.509C381.939,416.133 385.967,407.868 390.28,399.753C395.169,402.075 400.132,404.245 405.162,406.244C405.162,428.719 405.162,451.193 405.162,473.668C400.492,473.631 395.821,473.592 391.151,473.549C391.151,459.501 391.151,445.453 391.151,431.406C386.523,440.397 382.22,449.555 378.193,458.83L377.903,458.799C373.273,447.142 369.006,435.342 365.017,423.451C365.017,440.058 365.017,456.665 365.017,473.273C360.395,473.218 355.773,473.159 351.152,473.097C351.152,441.117 351.152,409.137 351.152,377.156Z" style="fill:rgb(209,165,86);"/>
                <path d="M414.163,409.611C427.399,414.252 441.068,417.669 454.962,419.62C454.962,423.888 454.962,428.155 454.962,432.422C445.916,431.445 436.924,429.989 428.029,428.082C428.029,431.103 428.029,434.123 428.029,437.144C436.114,438.543 444.252,439.637 452.421,440.414C452.421,444.398 452.421,448.381 452.421,452.365C444.274,451.857 436.14,451.143 428.029,450.224C428.029,453.387 428.029,456.55 428.029,459.713C437.118,460.349 446.219,460.825 455.325,461.141C455.325,465.405 455.325,469.668 455.325,473.931C441.604,473.894 427.884,473.828 414.163,473.734C414.163,452.36 414.163,430.985 414.163,409.611Z" style="fill:rgb(209,165,86);"/>
                <path d="M502.656,474.864C498.251,474.865 493.851,474.152 489.698,472.676C485.678,471.247 481.971,469.027 478.845,466.121C481.463,462.894 484.081,459.667 486.685,456.43C491.356,460.252 497.071,462.633 503.164,462.486C504.631,462.451 506.238,462.254 507.484,461.41C508.434,460.766 508.972,459.769 508.972,458.619L508.972,458.466C508.972,457.948 508.866,457.429 508.609,456.975C508.308,456.445 507.782,456.064 507.266,455.763C506.452,455.287 505.55,454.963 504.652,454.685C503.262,454.255 501.832,453.949 500.406,453.669C497.861,453.143 495.337,452.514 492.856,451.741C490.712,451.073 488.638,450.138 486.794,448.846C485.11,447.666 483.714,446.115 482.729,444.31C481.605,442.25 481.241,439.862 481.241,437.542L481.241,437.393C481.241,435.088 481.656,432.784 482.584,430.667C483.481,428.619 484.835,426.807 486.504,425.322C488.317,423.708 490.458,422.506 492.711,421.621C495.33,420.591 498.119,420.041 500.914,419.775C504.78,419.408 508.746,419.361 512.565,420.168C515.889,420.869 519.063,422.197 521.821,424.19C519.525,428.196 517.176,432.172 514.779,436.118C512.578,434.679 510.17,433.554 507.629,432.866C505.328,432.243 502.932,431.956 500.551,432.128C499.232,432.224 497.788,432.488 496.74,433.356C495.985,433.981 495.469,434.836 495.469,435.835L495.469,435.986C495.469,436.531 495.584,437.079 495.868,437.549C496.186,438.074 496.715,438.446 497.248,438.727C498.091,439.173 499.018,439.465 499.934,439.718C501.352,440.109 502.803,440.384 504.253,440.623C506.908,441.044 509.552,441.581 512.13,442.352C514.244,442.985 516.311,443.861 518.119,445.141C519.739,446.288 521.037,447.827 521.894,449.619C522.885,451.693 523.2,454.035 523.2,456.313L523.2,456.475C523.2,459.135 522.777,461.82 521.712,464.27C520.752,466.478 519.344,468.475 517.538,470.072C515.673,471.722 513.44,472.896 511.077,473.658C508.363,474.532 505.499,474.863 502.656,474.864Z" style="fill:rgb(209,165,86);"/>
                <path d="M530.024,415.836C534.76,414.7 539.456,413.405 544.107,411.962C544.107,427.564 544.107,443.165 544.107,458.767C552.322,458.11 560.527,457.324 568.717,456.412C568.717,462.141 568.717,467.871 568.717,473.601C555.82,473.71 542.922,473.795 530.024,473.856C530.024,454.516 530.024,435.176 530.024,415.836Z" style="fill:rgb(209,165,86);"/>
                <path d="M575.033,399.992C579.817,397.774 584.536,395.416 589.189,392.934C589.189,419.758 589.189,446.583 589.189,473.407C584.47,473.456 579.751,473.502 575.033,473.545C575.033,449.028 575.033,424.51 575.033,399.992Z" style="fill:rgb(209,165,86);"/>
                <path d="M622.945,475.016C619.213,475.016 615.689,473.571 612.709,471.387C609.305,468.891 606.563,465.59 604.397,461.987C601.861,457.766 600.071,453.129 598.807,448.38C597.326,442.811 596.738,437.041 596.738,431.288L596.738,431.046C596.738,424.976 597.431,418.922 598.771,413.002C600.097,407.144 601.964,401.412 604.361,395.904C606.662,390.615 609.473,385.544 612.818,380.843C615.808,376.641 619.314,372.715 623.526,369.703C625.676,368.165 628.042,366.709 630.64,366.084C632.579,365.618 634.629,365.627 636.484,366.418C638.437,367.251 640.023,368.736 641.275,370.425C642.888,372.603 644.1,375.061 645.086,377.577C641.731,385.77 638.211,393.896 634.488,401.928C633.374,399.453 631.938,396.848 629.696,395.216C627.748,393.797 625.362,394.315 623.381,395.387C621.379,396.469 619.776,398.173 618.48,400.018C616.899,402.27 615.659,404.748 614.669,407.311C613.541,410.233 612.733,413.272 612.165,416.35C611.559,419.629 611.257,422.96 611.257,426.294L611.257,426.56C611.257,429.76 611.515,432.969 612.165,436.107C612.696,438.67 613.456,441.219 614.669,443.548C615.605,445.344 616.834,447.038 618.48,448.246C619.905,449.292 621.632,449.74 623.381,449.437C624.68,449.211 625.909,448.691 626.974,447.916C628.161,447.052 629.139,445.934 629.95,444.718C630.936,443.24 631.764,441.66 632.491,440.04C633.366,438.092 634.14,436.099 634.85,434.086C638.567,438.752 642.091,443.569 645.449,448.499C644.327,452.229 643.037,455.914 641.493,459.492C640.209,462.469 638.641,465.35 636.629,467.901C634.95,470.03 632.912,471.882 630.531,473.196C628.211,474.476 625.58,475.016 622.945,475.016Z" style="fill:rgb(209,165,86);"/>
                <path d="M651.475,350.23C665.758,338.278 679.316,325.47 692.273,312.095C692.273,324.645 692.273,337.195 692.273,349.745C683.506,356.703 674.533,363.404 665.34,369.79C665.34,376.563 665.34,383.335 665.34,390.107C673.6,385.477 681.73,380.614 689.732,375.55C689.732,387.001 689.732,398.452 689.732,409.903C681.667,413.244 673.535,416.425 665.34,419.432C665.34,426.524 665.34,433.616 665.34,440.708C674.472,438.639 683.572,436.427 692.636,434.078C692.636,446.657 692.636,459.236 692.636,471.814C678.916,472.093 665.195,472.344 651.475,472.57C651.475,431.79 651.475,391.01 651.475,350.23Z" style="fill:rgb(209,165,86);"/>
            </g>
        </g>
    </g>
</svg>
